<svg width="428" height="395" viewBox="0 0 428 395" fill="none" xmlns="http://www.w3.org/2000/svg">
<g clip-path="url(#clip0_1105_2)">
<path d="M420.4 172.1C423.7 160.8 423.1 149.3 419.4 139.1C422.3 135 424.5 130.4 426 125.4C432.7 102.2 420.5 78.0002 398.5 69.3002C394.3 38.9002 372.7 12.3002 341.2 3.20015C316.4 -3.99985 290.9 1.40015 271.5 15.6002C266.7 10.5002 260.5 6.60015 253.2 4.50015C231.4 -1.79985 208.7 10.8002 202.4 32.6002C201.3 36.2002 200.8 39.9002 200.8 43.5002C178.9 47.9002 160.1 64.1002 153.5 87.0002C147.5 107.6 152.8 128.8 165.7 144.1C164 147.1 162.7 150.3 161.7 153.8C154.6 178.5 168.8 204.4 193.6 211.5C201.8 213.9 210 213.9 217.7 212C226.8 224.5 240 234.3 256 238.9C276.6 244.8 297.7 241.1 314.5 230.5C322 248 328.2 274.2 314.9 300C363.2 295.3 398.2 248.9 391 206.4C404.8 199.9 415.9 187.9 420.4 172.1Z" fill="#EBEBEB"/>
<path d="M327.7 290.3C327.4 290.3 327.2 290.2 327 290C326.7 289.7 326.6 289.4 326.7 289C333.5 265.3 327.3 242.5 320.9 227.6L317.7 220.1L310.8 224.5C300.3 231.1 288.3 234.7 276 234.7C269.9 234.7 263.9 233.8 258 232.1C244 228.1 232 219.7 223.4 207.8L220.6 204L216 205.1C209.3 206.8 202.2 206.6 195.5 204.7C185.3 201.8 176.9 195.1 171.8 185.8C166.7 176.5 165.5 165.8 168.4 155.7C169.2 152.9 170.4 150.1 171.8 147.5L174.1 143.3L171 139.6C159.1 125.5 155.1 106.6 160.2 88.9C165.9 69.1 182 54.3 202.2 50.3L207.8 49.2L207.9 43.5C207.9 40.4 208.4 37.4 209.2 34.4C213.4 19.9 226.8 9.8 241.9 9.8C245.1 9.8 248.3 10.3 251.4 11.1C257.2 12.8 262.4 15.9 266.6 20.3L270.8 24.7L275.8 21.1C288.2 12 303.6 7 319 7C325.8 7 332.7 8 339.3 9.9C367 17.9 387.6 41.6 391.6 70.2L392.2 74.2L396 75.7C415 83.2 425.1 103.7 419.4 123.4C418.2 127.6 416.3 131.5 413.8 135.1L411.7 138.1L412.9 141.5C416.2 150.8 416.5 160.8 413.8 170.3C410 183.5 400.7 194.3 388.2 200L383.3 202.2L384.2 207.5C387.2 225.6 381.8 245.4 369.2 261.8C358.7 275.5 344.1 285.6 328 290.3C327.9 290.3 327.8 290.3 327.7 290.3ZM318.1 217.6C318.2 217.6 318.3 217.6 318.4 217.6C318.7 217.7 318.9 217.9 319 218.2L322.7 226.8C329.1 241.6 335.3 264.1 329.1 287.7C344.1 282.9 357.7 273.3 367.5 260.5C379.7 244.5 385 225.3 382.1 207.7L381.1 201.7C381 201.3 381.3 200.8 381.7 200.6L387.3 198C399.2 192.5 408.2 182.1 411.8 169.5C414.4 160.4 414.1 150.9 411 142L409.6 138.1C409.5 137.8 409.5 137.5 409.7 137.2L412.1 133.8C414.5 130.4 416.2 126.7 417.4 122.7C422.8 104 413.2 84.6 395.2 77.5L390.9 75.8C390.6 75.7 390.3 75.4 390.3 75L389.7 70.4C385.8 42.6 365.9 19.5 338.9 11.7C332.3 9.9 325.6 9 319 9C304 9 289.1 13.9 276.9 22.8L271.2 26.9C270.8 27.2 270.2 27.1 269.9 26.8L265.1 21.7C261.2 17.6 256.3 14.6 250.8 13.1C247.9 12.3 244.9 11.8 241.9 11.8C227.7 11.8 215.1 21.3 211.1 35C210.3 37.8 209.9 40.6 209.8 43.5L209.7 50C209.7 50.5 209.4 50.9 208.9 51L202.6 52.3C183.1 56.2 167.6 70.5 162.2 89.5C157.3 106.5 161.2 124.8 172.6 138.3L176.2 142.5C176.5 142.8 176.5 143.3 176.3 143.6L173.6 148.4C172.2 150.9 171.1 153.5 170.3 156.2C167.5 165.8 168.7 176 173.5 184.8C178.4 193.6 186.3 200 196 202.7C202.3 204.5 209.1 204.7 215.4 203.1L220.6 201.8C221 201.7 221.4 201.9 221.7 202.2L224.9 206.6C233.2 218.1 244.8 226.2 258.4 230.1C264.1 231.7 270 232.6 275.9 232.6C287.8 232.6 299.5 229.2 309.7 222.8L317.6 217.8C317.8 217.7 317.9 217.6 318.1 217.6Z" fill="white"/>
<path d="M257.6 124.1L230.8 119.9L231.2 117.2C231.9 112.6 233 109 234.5 106.3C236 103.6 237.9 101.3 240.3 99.1999C242.7 97.1999 248 93.6999 256 88.8999C260.3 86.3999 262.6 83.7999 263 81.2999C263.4 78.6999 263 76.5999 261.6 74.8999C260.3 73.1999 258.1 72.0999 255 71.6999C251.7 71.1999 248.7 71.8999 246.2 73.6999C243.7 75.5999 241.7 79.1999 240.2 84.5999L213.4 76.9999C215.9 67.0999 220.8 59.5999 228.2 54.3999C235.5 49.2999 245.8 47.6999 258.9 49.7999C269.2 51.3999 277.1 54.7999 282.7 60.0999C290.4 67.1999 293.4 75.5999 291.9 85.1999C291.3 89.1999 289.6 92.8999 286.8 96.2999C284 99.6999 278.8 103.5 271.1 107.8C265.8 110.8 262.3 113.4 260.7 115.5C259.2 117.6 258.1 120.5 257.6 124.1ZM228.7 126.9L257.4 131.4L253.5 156.7L224.8 152.2L228.7 126.9Z" fill="white"/>
<path d="M326 163.4L311.1 151.3L312.3 149.8C314.4 147.3 316.3 145.4 318.2 144.3C320.1 143.2 322.1 142.4 324.3 142.1C326.5 141.7 330.9 141.5 337.5 141.4C341 141.4 343.3 140.7 344.5 139.2C345.7 137.8 346.1 136.3 345.9 134.8C345.7 133.3 344.7 131.9 343 130.5C341.1 129 339.1 128.4 336.9 128.6C334.7 128.8 332.2 130.4 329.4 133.1L315.7 119C320.7 113.8 326.4 111 332.7 110.4C339 109.9 345.8 112.5 353.1 118.5C358.8 123.1 362.4 128 364 133.2C366.2 140.3 365.1 146.5 360.7 151.8C358.9 154 356.6 155.7 353.7 156.7C350.8 157.8 346.3 158.3 340.1 158.2C335.8 158.2 332.7 158.5 331 159.2C329.3 160 327.6 161.3 326 163.4ZM307.4 154.9L323.3 167.8L311.9 181.9L296 168.9L307.4 154.9Z" fill="white"/>
<path d="M330.1 76.7005L323.7 67.9005L324.6 67.3005C326.1 66.2005 327.4 65.5005 328.6 65.1005C329.8 64.8005 331 64.6005 332.3 64.7005C333.6 64.8005 336 65.3005 339.7 66.2005C341.6 66.7005 343 66.6005 343.9 66.0005C344.7 65.4005 345.2 64.6005 345.3 63.8005C345.4 63.0005 345.1 62.0005 344.3 61.0005C343.5 59.9005 342.5 59.3005 341.2 59.1005C339.9 58.9005 338.3 59.4005 336.4 60.5005L330.9 50.7005C334.4 48.6005 338 47.8005 341.5 48.5005C345 49.1005 348.4 51.6005 351.6 55.9005C354.1 59.3005 355.3 62.5005 355.5 65.6005C355.7 69.8005 354.2 73.1005 351 75.4005C349.7 76.4005 348.2 76.9005 346.4 77.1005C344.6 77.3005 342.1 76.9005 338.7 75.9005C336.3 75.2005 334.6 75.0005 333.6 75.1005C332.5 75.4005 331.3 75.9005 330.1 76.7005ZM321.1 69.4005L328 78.8005L319.7 84.9005L312.8 75.5005L321.1 69.4005Z" fill="white"/>
<path d="M81.7 201.5C73.4 201.5 65.1 199.2 57.7 194.8C47.6 188.8 40.4 179.4 37.9 169C29.7 168.4 22.1 164.4 17 157.8C13.3 153.1 11.2 147.5 10.9 141.5C8.70004 140 6.80004 138.2 5.20004 136.1C-2.69996 125.9 -1.69996 111.7 7.40004 102.8C3.80004 86.6997 9.80004 69.5997 23 59.3997C33.3 51.3997 46.5 48.4997 59.3 51.5997C60.8 48.1997 63.1 45.2997 66 42.9997C70.7 39.3997 76.5 37.7997 82.4 38.4997C88.3 39.1997 93.6 42.1997 97.2 46.8997C98.3 48.2997 99.2 49.8997 100 51.4997C112 49.4997 124.1 54.1997 131.6 63.8997C138.3 72.4997 140.3 83.7997 137 94.1997C138.3 95.2997 139.5 96.5997 140.5 97.8997C149 108.9 147 124.7 136.1 133.2C132.8 135.8 128.8 137.5 124.6 138.2C122.4 146.4 117.7 153.4 111.1 158.6C102.7 165.2 91.9 167.9 81.3 166.2C81.2 175.9 83.5 189.1 94.3 198.5C94.5 198.7 94.6 199 94.6 199.3C94.5 199.6 94.3 199.8 94.1 199.9C90 200.9 85.9 201.5 81.7 201.5ZM49.1 51.8997C40.1 51.8997 31.3 54.8997 23.9 60.5997C11.1 70.5997 5.30004 87.1997 9.20004 103C9.30004 103.3 9.20004 103.6 9.00004 103.8C0.10004 112.2 -0.89996 125.7 6.60004 135.3C8.20004 137.3 10.1 139.1 12.3 140.5C12.5 140.6 12.6 140.9 12.7 141.1C12.9 146.9 14.9 152.3 18.5 156.9C23.4 163.2 30.8 167.1 38.8 167.5C39.2 167.5 39.5 167.8 39.5 168.1C41.7 178.3 48.7 187.5 58.7 193.5C69 199.6 81.2 201.5 92.3 198.6C81.6 188.6 79.6 174.9 79.8 165.1C79.8 164.9 79.9 164.7 80.1 164.5C80.3 164.4 80.5 164.3 80.7 164.3C91.1 166.3 101.8 163.7 110.1 157.2C116.6 152.1 121.2 145.2 123.2 137.1C123.3 136.8 123.5 136.6 123.9 136.5C128 135.9 131.9 134.3 135.1 131.8C145.4 123.8 147.2 109 139.3 98.6997C138.2 97.2997 137 95.9997 135.6 94.8997C135.3 94.6997 135.2 94.3997 135.4 93.9997C138.7 83.8997 136.9 72.9997 130.4 64.5997C123.1 55.2997 111.4 50.7997 99.7 52.8997C99.3 52.9997 99 52.7997 98.8 52.3997C98.1 50.6997 97.1 49.0997 96 47.5997C92.6 43.1997 87.7 40.4997 82.2 39.7997C76.7 39.0997 71.3 40.5997 66.9 43.9997C64 46.1997 61.8 49.1997 60.4 52.5997C60.3 52.9997 59.9 53.1997 59.5 53.0997C56 52.3997 52.6 51.8997 49.1 51.8997Z" fill="#E6E6E6"/>
<path d="M54.0001 117.899L40.2001 121.199L39.9001 119.799C39.3001 117.399 39.2001 115.499 39.4001 113.899C39.6001 112.299 40.1001 110.799 40.8001 109.299C41.6001 107.799 43.4001 105.199 46.4001 101.199C48.0001 99.0993 48.6001 97.3993 48.3001 96.0993C48.0001 94.7993 47.3001 93.7993 46.4001 93.2993C45.4001 92.6993 44.2001 92.6993 42.6001 92.9993C40.9001 93.3993 39.6001 94.2993 38.7001 95.6993C37.8001 97.0993 37.6001 99.2993 37.9001 102.199L23.4001 103.799C22.7001 98.4993 23.6001 93.8993 26.1001 89.8993C28.6001 85.9993 33.3001 83.1993 40.1001 81.5993C45.4001 80.3993 49.9001 80.4993 53.7001 81.8993C58.8001 83.7993 62.0001 87.2993 63.1001 92.2993C63.6001 94.3993 63.5001 96.4993 62.8001 98.6993C62.1001 100.899 60.3001 103.799 57.5001 107.399C55.5001 109.899 54.3001 111.799 54.0001 113.199C53.5001 114.399 53.5001 115.999 54.0001 117.899ZM40.5001 124.899L55.3001 121.399L58.4001 134.399L43.6001 137.999L40.5001 124.899Z" fill="#EBEBEB"/>
<path d="M89.0999 88.6999L79.4999 85.7999L79.7999 84.7999C80.2999 83.1999 80.8999 81.8999 81.5999 80.9999C82.2999 80.0999 83.0999 79.2999 84.0999 78.6999C85.0999 78.0999 87.1999 77.0999 90.3999 75.7999C92.0999 75.0999 93.0999 74.2999 93.3999 73.3999C93.6999 72.4999 93.5999 71.6999 93.1999 70.9999C92.7999 70.2999 92.0999 69.7999 90.8999 69.4999C89.6999 69.0999 88.5999 69.1999 87.5999 69.7999C86.5999 70.3999 85.6999 71.5999 84.7999 73.4999L75.3999 69.2999C76.7999 65.7999 78.9999 63.2999 81.9999 61.7999C84.8999 60.2999 88.7999 60.2999 93.4999 61.6999C97.1999 62.7999 99.8999 64.4999 101.7 66.6999C104.1 69.6999 104.8 72.8999 103.8 76.3999C103.4 77.7999 102.6 79.0999 101.4 80.1999C100.2 81.2999 98.0999 82.3999 95.0999 83.5999C92.9999 84.3999 91.5999 85.1999 90.8999 85.8999C90.0999 86.3999 89.4999 87.3999 89.0999 88.6999ZM78.3999 88.2999L88.6999 91.3999L85.8999 100.5L75.5999 97.3999L78.3999 88.2999Z" fill="#EBEBEB"/>
<path d="M111 225.4L110.1 225C110.9 223 111.4 221.4 111.6 220L112.6 220.1C112.3 221.6 111.8 223.3 111 225.4ZM110.6 213.9C108.7 209.6 105.1 206.9 100.2 206.1L100.4 205.1C105.6 206 109.5 208.9 111.6 213.4L110.6 213.9Z" fill="#063583"/>
<path d="M105.4 235.4L95.6 239.9L95.2 238.9C94.4 237.2 94 235.8 93.9 234.6C93.8 233.4 93.9 232.2 94.3 231C94.7 229.8 95.7 227.5 97.3 224.1C98.2 222.3 98.4 221 98 220C97.6 219.1 97 218.4 96.2 218.2C95.4 217.9 94.4 218.1 93.3 218.6C92.1 219.2 91.2 220 90.8 221.2C90.4 222.4 90.5 224 91.2 226.1L80.6 229.4C79.3 225.5 79.3 222 80.6 218.6C81.9 215.3 85 212.5 89.8 210.3C93.6 208.6 97 208 100 208.5C104.1 209.2 107 211.3 108.6 214.8C109.3 216.3 109.5 217.9 109.3 219.6C109.1 221.3 108.2 223.8 106.6 226.9C105.5 229.1 104.9 230.7 104.8 231.7C104.5 232.9 104.7 234.1 105.4 235.4ZM96.4 242.7L106.9 237.9L111.1 247.2L100.6 252L96.4 242.7Z" fill="#063583"/>
<path d="M80.9999 257.7L75.9999 264.5L75.2999 264C74.0999 263.1 73.2999 262.3 72.7999 261.5C72.2999 260.7 71.8999 259.8 71.6999 258.9C71.4999 257.9 71.2999 256 71.0999 253.1C70.9999 251.6 70.6999 250.5 69.9999 250.1C69.2999 249.6 68.6999 249.4 67.9999 249.6C67.3999 249.7 66.6999 250.2 66.1999 251C65.5999 251.8 65.2999 252.8 65.4999 253.7C65.6999 254.7 66.3999 255.7 67.5999 256.9L61.5999 263.2C59.1999 261.1 57.8999 258.6 57.4999 255.9C57.0999 253.1 58.1999 250.1 60.5999 246.8C62.4999 244.2 64.5999 242.5 66.8999 241.7C69.9999 240.6 72.6999 241 75.1999 242.8C76.1999 243.5 76.9999 244.5 77.4999 245.8C77.9999 247.1 78.2999 249 78.3999 251.8C78.4999 253.7 78.6999 255 78.9999 255.8C79.3999 256.3 80.0999 257 80.9999 257.7ZM77.5999 266L82.9999 258.7L89.3999 263.4L83.9999 270.7L77.5999 266Z" fill="#063583"/>
<path d="M187.5 390.601C185.9 390.601 184.3 389.701 183.5 388.201C179.5 380.401 174.4 371.301 165.3 361.501C164.2 360.301 163.9 358.701 164.3 357.201C167.7 345.501 173 329.501 173 329.301C173.8 326.901 176.3 325.701 178.7 326.501C181.1 327.301 182.3 329.801 181.5 332.201C181.5 332.301 176.9 346.101 173.6 357.401C182 366.901 187.1 375.901 191.4 384.201C192.5 386.401 191.7 389.101 189.5 390.201C188.9 390.401 188.2 390.601 187.5 390.601Z" fill="#063583"/>
<path d="M194.9 394.2H160.1L178.6 383.7L194 384.3L194.9 394.2Z" fill="#161616"/>
<path d="M191.63 352.074C207.445 347.132 216.94 332.484 212.837 319.358C208.735 306.232 192.589 299.598 176.775 304.54C160.96 309.483 151.465 324.13 155.567 337.256C159.67 350.382 175.815 357.017 191.63 352.074Z" fill="#161616"/>
<path d="M105 311.901C103.2 311.901 101.6 310.901 100.9 309.101C100 306.801 101 304.201 103.3 303.201C105.9 302.101 106.3 299.501 106.3 299.401C106.5 297.401 108 295.801 110 295.401C111.1 295.201 112.1 294.901 113.3 294.601C119.4 292.801 126.9 290.601 150.6 297.301C174 284.201 174.2 259.701 174.2 258.601C174.2 256.101 176.2 254.101 178.7 254.101C181.2 254.101 183.2 256.101 183.2 258.501C183.2 259.801 183.1 290.601 153.2 306.001C152.2 306.501 151 306.601 149.9 306.301C127.3 299.801 120.9 301.601 115.8 303.101C115.3 303.201 114.9 303.401 114.4 303.501C113.3 306.301 111 309.601 106.8 311.401C106.2 311.801 105.6 311.901 105 311.901Z" fill="#161616"/>
<path d="M157.5 279.8C149 246 126.3 158.7 199 153.4C264.2 148.6 282.1 235.4 286.4 265.4C288.9 282.9 289.8 298.8 289.9 311.2C290.1 327.2 278.8 341 263.1 344.2C227.6 351.4 194 352.4 171.4 343.5C165.3 341.1 161.6 334.8 162.2 328.3C163 318.7 163 302 157.5 279.8Z" fill="#063583"/>
<path opacity="0.1" d="M286.3 265.501C282.2 237.201 266.1 158.501 209.6 153.501C203 152.901 196.6 156.201 193.5 162.001C191 166.901 191.1 172.801 194.8 178.601C207.2 197.901 236.9 264.601 232.4 300.901C230.4 317.401 220 330.601 229 349.201C239.9 348.301 251.3 346.601 262.9 344.201C278.6 341.001 289.8 327.201 289.7 311.201C289.7 298.901 288.9 283.001 286.3 265.501Z" fill="#161616"/>
<path d="M276.6 311.7C276.4 311.7 276.2 311.5 276.2 311.3C276 295.8 274.8 280.5 272.7 265.5C261.9 190.8 232.8 153.1 188.6 156.3C188.4 156.3 188.1 156.1 188.1 155.9C188.1 155.7 188.3 155.4 188.5 155.4C233.3 152.1 262.7 190.1 273.6 265.3C275.8 280.3 277 295.7 277.1 311.2C277.1 311.5 276.9 311.7 276.6 311.7Z" fill="#161616"/>
<path d="M275.936 354.486C291.751 349.544 301.246 334.897 297.143 321.77C293.041 308.644 276.895 302.01 261.081 306.952C245.266 311.895 235.771 326.542 239.873 339.668C243.976 352.795 260.121 359.429 275.936 354.486Z" fill="#161616"/>
<path d="M278.7 390.601C277.1 390.601 275.5 389.701 274.7 388.201C270.7 380.401 265.6 371.301 256.5 361.501C255.4 360.301 255.1 358.701 255.5 357.201C258.9 345.501 264.2 329.501 264.2 329.301C265 326.901 267.5 325.701 269.9 326.501C272.3 327.301 273.5 329.801 272.7 332.201C272.7 332.301 268.1 346.101 264.8 357.401C273.2 366.901 278.3 375.901 282.6 384.201C283.7 386.401 282.9 389.101 280.7 390.201C280.1 390.401 279.4 390.601 278.7 390.601Z" fill="#063583"/>
<path d="M269.2 253.801C267.6 253.801 266 252.901 265.2 251.401C264.1 249.201 264.9 246.501 267.1 245.301C268 244.801 287.5 234.201 293 208.501C280 203.101 256.6 190.801 251.5 184.601C251 184.001 250.7 183.301 250.5 182.501C250.4 181.801 249.5 176.501 251.5 171.501L249.1 166.901C248 164.701 248.8 162.001 251 160.901C253.2 159.801 255.9 160.601 257 162.801L260.4 169.401C261.1 170.801 261.1 172.501 260.2 173.801C259.1 175.501 259 178.101 259.1 179.701C264.9 184.901 288.1 197.201 299.5 201.501C301.5 202.201 302.7 204.301 302.4 206.401C297.3 239.201 272.3 252.701 271.2 253.201C270.7 253.701 270 253.801 269.2 253.801Z" fill="#161616"/>
<path d="M254.9 184.101C254.5 184.101 254.1 184.001 253.7 183.701C252.7 183.001 252.4 181.601 253 180.601C253.2 180.401 256.9 174.801 262.5 173.301C263.7 173.001 264.9 173.701 265.2 174.901C265.5 176.101 264.8 177.301 263.6 177.601C259.7 178.701 256.7 183.001 256.7 183.101C256.4 183.701 255.7 184.101 254.9 184.101Z" fill="#161616"/>
<path d="M286.1 394.2H251.4L269.8 383.7L285.2 384.3L286.1 394.2Z" fill="#161616"/>
<path d="M213.297 260.214C226.445 259.05 236.255 248.518 235.209 236.691C234.162 224.863 222.655 216.218 209.506 217.381C196.358 218.545 186.548 229.077 187.595 240.904C188.642 252.732 200.149 261.377 213.297 260.214Z" fill="white"/>
<path d="M208.789 252.455C212.294 251.456 213.664 245.48 211.848 239.106C210.032 232.733 205.718 228.375 202.213 229.374C198.707 230.373 197.338 236.349 199.154 242.723C200.97 249.097 205.283 253.454 208.789 252.455Z" fill="#161616"/>
<path d="M184.2 242.801C199.3 240.901 229.2 232.301 234.1 228.901C230.2 217.501 212.1 207.801 196 213.301C181.4 218.201 184.2 242.801 184.2 242.801Z" fill="#161616"/>
<path d="M187.1 250.101C205.8 246.501 230.2 240.601 237.2 236.701C236.8 248.901 233.2 261.301 214.1 265.501C198.4 268.901 187.1 250.101 187.1 250.101Z" fill="#161616"/>
<path d="M171.661 261.817C178.432 257.337 179.325 246.76 173.657 238.193C167.989 229.626 157.905 226.312 151.134 230.792C144.363 235.272 143.469 245.848 149.138 254.416C154.806 262.983 164.89 266.296 171.661 261.817Z" fill="white"/>
<path d="M161.7 246.6C162.8 252 161.9 256.4 159.5 256.6C157.2 256.8 154.3 252.5 153.2 247.2C152.1 241.8 153 237.4 155.4 237.2C157.7 237 160.6 241.3 161.7 246.6Z" fill="#161616"/>
<path d="M143.1 244.6C153.2 245.8 173.3 244.5 176.7 242.6C174.2 232.9 162.2 221.9 151.4 223.3C141.6 224.6 143.1 244.6 143.1 244.6Z" fill="#161616"/>
<path d="M145 250.9C157.6 251.5 174 251.2 178.7 249.4C178.3 259 175.7 268.2 162.9 268C152.4 267.9 145 250.9 145 250.9Z" fill="#161616"/>
<path d="M217.5 207.2C198.6 207.2 186.1 197.9 185.4 197.4C183.4 195.9 183 193.101 184.5 191.101C186 189.101 188.8 188.7 190.8 190.2C191 190.4 205.9 201.201 226.6 197.301C229 196.801 231.4 198.4 231.8 200.9C232.3 203.3 230.7 205.701 228.2 206.101C224.5 206.901 220.9 207.2 217.5 207.2Z" fill="#161616"/>
<path d="M137.2 199.5C136.7 199.5 136.2 199.4 135.7 199.2C133.4 198.4 132.2 195.8 133 193.5C135.4 186.9 139.3 182.6 144.7 180.7C154.5 177.3 165 183.9 165.5 184.2C167.6 185.5 168.2 188.3 166.9 190.4C165.6 192.5 162.8 193.1 160.7 191.8C158.7 190.5 152.3 187.6 147.6 189.2C144.9 190.1 142.9 192.5 141.4 196.5C140.8 198.4 139.1 199.5 137.2 199.5Z" fill="#161616"/>
<path d="M172.6 275.2C172.5 275.2 172.4 275.2 172.2 275.1C171.5 274.9 171.1 274.2 171.3 273.5C171.3 273.4 172.2 270.5 175.9 268.6C181 265.9 188.9 266.5 199.2 270.2C199.9 270.5 200.3 271.2 200 271.9C199.7 272.6 199 273 198.3 272.7C186.5 268.4 180.3 269.3 177.3 270.9C174.6 272.2 174 274.1 174 274.2C173.7 274.8 173.2 275.2 172.6 275.2Z" fill="#161616"/>
<path d="M130.3 270.301C104.2 272.601 85.5 283.501 85.5 283.501C93.2 282.001 120.9 316.201 128 342.601C141.1 337.701 156.4 334.401 172.7 331.801C162.7 304.601 144.7 273.801 130.3 270.301Z" fill="#063583"/>
<path opacity="0.6" d="M130.3 270.301C104.2 272.601 85.5 283.501 85.5 283.501C93.2 282.001 120.9 316.201 128 342.601C141.1 337.701 156.4 334.401 172.7 331.801C162.7 304.601 144.7 273.801 130.3 270.301Z" fill="white"/>
<path d="M130.3 270.301C113.2 268.401 85.5002 282.701 85.5002 282.701C80.6002 285.801 81.9002 291.701 84.6002 294.201C87.2002 290.501 115.8 280.901 126.6 279.601C121.2 274.601 126.2 271.001 130.3 270.301Z" fill="#063583"/>
<path opacity="0.2" d="M130.3 270.301C113.2 268.401 85.5002 282.701 85.5002 282.701C80.6002 285.801 81.9002 291.701 84.6002 294.201C87.2002 290.501 115.8 280.901 126.6 279.601C121.2 274.601 126.2 271.001 130.3 270.301Z" fill="white"/>
<path d="M105 311.9C103.5 311.9 102.1 311.2 101.2 309.9C97.9005 304.9 100 297.3 100.4 295.8C101.1 293.4 103.6 292.1 106 292.8C108.4 293.5 109.7 296 109 298.4C108.3 300.9 108.1 304.1 108.7 305C110.1 307.1 109.5 309.9 107.4 311.2C106.7 311.7 105.9 311.9 105 311.9Z" fill="#161616"/>
</g>
<defs>
<clipPath id="clip0_1105_2">
<rect width="427.8" height="394.2" fill="white"/>
</clipPath>
</defs>
</svg>
